<?xml version="1.0" encoding="utf-8"?>
<!-- Generator: Adobe Illustrator 16.0.0, SVG Export Plug-In . SVG Version: 6.00 Build 0)  -->
<!DOCTYPE svg PUBLIC "-//W3C//DTD SVG 1.1//EN" "http://www.w3.org/Graphics/SVG/1.1/DTD/svg11.dtd">
<svg version="1.1" id="Layer_1" xmlns="http://www.w3.org/2000/svg" xmlns:xlink="http://www.w3.org/1999/xlink" x="0px" y="0px"
	 width="182px" height="64.5px" viewBox="0 0 182 64.5" enable-background="new 0 0 182 64.5" xml:space="preserve">
<g>
	<g>
		<path fill="#81BF41" d="M28.91,46.296c0,0,10.883-4.597,13.621-13.541l0.146-17.183c0,0-5.19,1.884-10.393-1.413
			c0,0-1.11-0.389-2.816-0.432h-0.977c-1.707,0.043-2.819,0.432-2.819,0.432c-5.2,3.297-10.397,1.413-10.397,1.413l0.149,17.183
			c2.733,8.944,13.625,13.541,13.625,13.541H28.91z"/>
		<path fill="#80BF48" d="M52.615,33.676l-1.886,1.105c-6.277,4.36-4.308,6.749-4.308,6.749c2.683-1.499,5.284-0.307,5.284-0.307
			c1.546-1.184,3.003-2,4.165-2.548C55.87,38.675,50.383,38.347,52.615,33.676z"/>
		<rect x="26.014" y="12.303" fill="#009E53" width="6.548" height="0.937"/>
		<linearGradient id="SVGID_1_" gradientUnits="userSpaceOnUse" x1="29.3013" y1="6.7007" x2="29.3013" y2="11.9209">
			<stop  offset="0" style="stop-color:#FDE92B"/>
			<stop  offset="1" style="stop-color:#E93E2E"/>
		</linearGradient>
		<path fill="url(#SVGID_1_)" d="M31.084,11.896c0,0,2.633-0.976,1.423-3.253c0,0-0.43-0.579-1.566-1.551
			c0,0-1.08-0.868-0.838-1.693c0,0-0.765,0.488-0.126,1.854c0,0,1.5,1.266,1.621,2.281c0,0,0.342,1.18-1.121,1.858l-0.229-0.018
			c0,0,1.262-1.309,0.516-2.558c0,0-2.165-2.268-1.049-3.521l0.853-0.799c0,0-1.419-0.035-2.309,1.452c0,0-0.573,1.27,0.443,2.437
			c0,0,0.745,1.007,0.958,1.317c0,0,0.464,1.24-0.264,1.828c0,0,0.158-1.582-0.678-2.333c0,0-1.441-1.421-0.833-2.579
			c0,0-1.086,0.475-1.176,1.59c0,0-0.032,1.007,1.26,2.057c0,0,0.929,0.622,0.89,1.252l-0.069,0.035c0,0-0.657-0.717-1.438-1.214
			c0,0-1.033-0.613-0.799-1.901c0,0-1.21,0.899-0.605,2.247c0,0,0.177,0.605,1.564,1.184L31.084,11.896z"/>
		<path fill="#80BF48" d="M31.343,33.534L32.49,14.26c-1.58-0.315-3.969-0.597-6.349-0.165l0.817,19.421L31.343,33.534z"/>
		<linearGradient id="SVGID_2_" gradientUnits="userSpaceOnUse" x1="26.1411" y1="23.6265" x2="32.4902" y2="23.6265">
			<stop  offset="0" style="stop-color:#FDE92B"/>
			<stop  offset="1" style="stop-color:#00864A"/>
		</linearGradient>
		<path fill="url(#SVGID_2_)" d="M31.343,33.534L32.49,14.26c-1.86-0.627-4.107-0.717-6.349-0.229l0.817,19.485L31.343,33.534z"/>
		<g>
			<linearGradient id="SVGID_3_" gradientUnits="userSpaceOnUse" x1="0.5479" y1="27.5742" x2="-4.4581" y2="32.5802">
				<stop  offset="0" style="stop-color:#FDE92B"/>
				<stop  offset="1" style="stop-color:#F6AF26"/>
			</linearGradient>
			<path fill="url(#SVGID_3_)" d="M11.153,16.978c-0.004-0.013-0.004-0.018-0.004-0.018S11.149,16.965,11.153,16.978z"/>
			<linearGradient id="SVGID_4_" gradientUnits="userSpaceOnUse" x1="15.7642" y1="35.2671" x2="12.5105" y2="38.5208">
				<stop  offset="0" style="stop-color:#FDE92B"/>
				<stop  offset="1" style="stop-color:#F6AF26"/>
			</linearGradient>
			<path fill="url(#SVGID_4_)" d="M28.802,47.018c-1.077-0.091-2.168-0.623-2.437-0.722c-2.026-0.712-3.378-1.11-3.525-1.716
				c-0.471-1.974-2.018-2.583-2.018-2.583l-0.888,0.043c0,0-0.922-0.67-1.042-1.002c-0.229-0.673-0.982-0.722-0.982-0.722
				l-0.329-0.476l-0.609-0.907l-0.564-0.574l-0.281-0.67c0,0-0.689-0.716-0.704-1.101c-0.05-1.103-0.521-1.202-0.521-1.202
				s-0.585-0.096-0.562-0.669c0.042-1.05-0.847-1.387-0.847-1.387c-0.19-1.914-0.795-2.346-0.795-2.346
				c0.422-1.097-0.418-2.583-0.418-2.583c0.276-2.204-0.618-2.826-0.618-2.826c0.659-1.292,0.19-2.92,0.19-2.92
				c0.799-1.011,0.751-2.917,0.751-2.917c0.929-0.726,0.832-2.165,0.748-2.73h0.004c1.026-0.817,0.942-2.635,0.942-2.635
				c0.89-0.238,2.281-1.521,1.974-2.342c-0.47-1.249-0.849-0.052-0.849-0.052s0.145,0.354,0.045,0.717
				c-0.24,0.856-1.204,1.214-1.081,0.963c0.376-0.76-0.047-1.343-0.047-1.343s-0.326-0.286-0.71-0.433
				c-0.746-0.276-0.651,0.765-0.651,0.765s0.378,0.061,0.471,0.437c0.186,0.769-0.471,1.288-0.471,1.288l-0.375,0.095
				c0,0-0.008,0.734-0.283,0.669c-1.035-0.241-1.121,0.558-0.75,0.67c0.468,0.155,0.44,1.252,0.281,1.486
				c-0.303,0.441-0.648-0.225-0.7-0.315c0.039,0.073,0.246,0.531-0.052,0.514c-1.223-0.095-0.423,1.62-0.329,1.383
				c0.095-0.246,0.588-0.319,0.609,0.051c0.1,1.482-0.748,1.335-0.748,1.335s0-0.436-0.138-0.812
				c-0.146-0.389-0.432,1.287-0.432,1.287c-1.309,0.095-0.795,2.45-0.795,2.45s0.464,0.652,0.329,0.808
				c-0.989,0.964-0.095,1.629,0,1.197c0.09-0.432,0.488-0.562,0.609-0.333c0.808,1.439,0.231,1.94,0.047,1.625
				c-0.843-1.435-0.799-0.38-0.799-0.38s0.7,1.292,0.285,1.343c-0.844,0.096-0.609,0.847-0.328,1.098
				c1.266,1.153,1.124,1.966,0.7,2.013c-1.406,0.143-0.411,0.744-0.182,1.24c0.704,1.521,0.587,1.318,0.277,1.633
				c-0.891,0.908,0.272,0.669,0.427,0.86c0.233,0.286,0.242,0.337,0.281,0.77c0.146,1.534,0.984,2,1.218,2.147
				c0.376,0.242,0.476,0.562,0.333,0.959c-0.327,0.908,0.604,1.24,0.795,0.95c0.189-0.28,0.333,0.58,0.333,0.58l0.181,0.907
				c0.938,0.146,1.922,0.644,1.787,1.058c-0.231,0.721,0.309,0.852,0.847,0.955c1.272,0.243,1.458,0.769,1.458,0.769l-0.569,0.433
				l1.691,1.386c0,0,1.674-0.021,1.928,0.096c6.014,2.783,7.351,2.787,7.646,2.783C29.688,48.028,28.802,47.018,28.802,47.018z
				 M15.141,36.489v1.732c0,0-0.428-0.433-1.125-0.289c0,0-0.141-1.353,0.093-1.538C14.342,36.204,14.389,36.057,15.141,36.489z
				 M13.402,34.337c0.193,0.855,0.123,0.211,0.473,0.095c0.424-0.143,0.374,1.244,0.091,1.629c-0.281,0.389-0.752-0.385-0.752-0.385
				s-0.445,0.187-0.374-0.332C12.98,34.337,13.402,34.337,13.402,34.337z M12.7,34.004c-0.232,0.233-1.018-0.29-1.079-0.721
				c-0.091-0.678,0.604-1.149,0.604-1.149C13.305,31.896,12.93,33.763,12.7,34.004z M12.041,30.79
				c-0.179,1.05-0.713,0.881-0.517,0.48c0.376-0.765,0.048-0.912,0.048-0.912s-0.501,0.79-0.517,0.384
				c-0.05-1.386,0.279-1.391,0.279-1.391C12.514,29.308,12.134,30.267,12.041,30.79z M11.948,26.535c0,0,0.052,1.387-0.236,1.867
				c-0.183,0.319-0.377,0.527-0.377-0.774c-0.047-0.042-0.609,0.1-0.609,0.1s-0.047-1.059,0.19-1.244L11.948,26.535z M13.071,14.805
				c0,0,0.895,0.047,0.666,0.765c-0.189,0.566-0.704,1.862-0.708,0.574c0-0.388-0.423-0.336-0.423-0.336
				S12.834,14.999,13.071,14.805z M12.37,17.396c0,0,0.845-0.099,0.56,1.288c-0.122,0.613-0.47,0.95-0.56,0.622
				c-0.088-0.337-0.564-0.726-0.564-0.726S11.663,17.63,12.37,17.396z M11.482,20.313c0,0,0.978-0.203,0.466,1.335
				c-0.116,0.346-0.799,1.542-0.892,0.052c-0.035-0.476-0.283-0.1-0.283-0.1S10.591,20.784,11.482,20.313z M9.972,23.609
				c0,0-0.84-1.481,0.194-2.151c0,0,0.557,0.32,0.521,1.378c0.074-0.052,0.13-0.091,0.13-0.091s-0.177,0.626-0.138,0.199
				c0-0.039,0-0.069,0.008-0.108C10.432,23,9.935,23.359,9.972,23.609z M10.497,24.621c0,0-0.289-0.722,0.56-1.625
				c0,0,1.272,0.371,0.279,2.052c-0.216,0.376-0.376,0.285-0.376,0.047S10.497,24.621,10.497,24.621z M9.931,28.202
				c0,0,0.985,0.147,0.795,1.149C10.665,29.697,9.647,28.928,9.931,28.202z M10.445,31.041c0,0,1.356,0.756,0.795,1.331
				C10.756,32.873,10.208,32.708,10.445,31.041z M11.056,34.77c-0.164-0.294-0.43-0.959,0.184-0.916c0,0,1.931,0.579,0.894,1.3
				C11.667,35.474,11.482,35.534,11.056,34.77z M13.028,37.932c0,0-0.898-0.77-0.944-1.343c-0.033-0.438,0.098-0.528,0.098-0.528
				s1.22,0.341,1.175,1.006C13.326,37.448,13.028,37.932,13.028,37.932z M14.389,39.751c0,0-0.758-0.147-1.032-1.105
				c-0.151-0.515,0.329-0.385,0.329-0.385s0.941,0.285,0.896,0.955C14.536,39.789,14.389,39.751,14.389,39.751z M15.707,41.039
				c0,0-1.082-0.238-0.706-0.722c0,0,1.167,0.095,1.173,0.817C16.176,41.557,15.707,41.039,15.707,41.039z M16.221,40.126
				c0,0-0.843-0.527-1.08-0.285c0,0-0.192-1.292,0.045-1.387l1.087,0.048L16.221,40.126z M17.016,39.933
				c1.176,0.531,0.754,1.771,0.754,1.771c-0.097-0.195-0.754-0.289-0.754-0.289s-0.379-0.031-0.418-0.376
				C16.498,40.126,17.016,39.933,17.016,39.933z M17.96,43.043c0,0-1.739-0.571-1.363-1.046c0,0,1.313-0.099,1.404,0.475
				C18.074,42.896,17.96,43.043,17.96,43.043z M18.664,41.471c0,0,0.793,0.233,1.173,1.144c0.177,0.45-0.099,0.865-0.707-0.09
				c-0.183-0.298-0.28,0.329-0.28,0.329S17.96,41.803,18.664,41.471z M19.366,44.775c-0.047-0.194,0.187-0.769-0.753-0.674
				c-0.279,0.026,0.14-0.622,0.14-0.622s1.086-0.139,1.322,0.337c0.229,0.471,0.419,1.102,0.419,1.102S19.418,44.965,19.366,44.775z
				 M23.069,45.916c0,0-1.585-0.604-1.827-1.054c-0.895-1.628-0.281-2.294-0.281-2.294c0.99,0.57,1.409,2.207,1.409,2.207
				l0.803,0.956L23.069,45.916z"/>
			<linearGradient id="SVGID_5_" gradientUnits="userSpaceOnUse" x1="23.2998" y1="42.4648" x2="19.8619" y2="45.9028">
				<stop  offset="0" style="stop-color:#FDE92B"/>
				<stop  offset="1" style="stop-color:#F6AF26"/>
			</linearGradient>
			<path fill="url(#SVGID_5_)" d="M21.104,43.527c0,0,0.238,1.196,0.799,1.391C22.261,45.039,21.531,43.768,21.104,43.527z"/>
		</g>
		<linearGradient id="SVGID_6_" gradientUnits="userSpaceOnUse" x1="6.7998" y1="21.4492" x2="4.692" y2="23.557">
			<stop  offset="0" style="stop-color:#FDE92B"/>
			<stop  offset="1" style="stop-color:#F6AF26"/>
		</linearGradient>
		<path fill="url(#SVGID_6_)" d="M11.268,16.991c-0.002-0.008-0.007-0.013-0.007-0.013S11.266,16.982,11.268,16.991z"/>
		<linearGradient id="SVGID_7_" gradientUnits="userSpaceOnUse" x1="23.4092" y1="42.4795" x2="19.9731" y2="45.9155">
			<stop  offset="0" style="stop-color:#FDE92B"/>
			<stop  offset="1" style="stop-color:#F6AF26"/>
		</linearGradient>
		<path fill="url(#SVGID_7_)" d="M21.214,43.544c0,0,0.24,1.198,0.801,1.387C22.371,45.047,21.642,43.777,21.214,43.544z"/>
		<g>
			
				<linearGradient id="SVGID_8_" gradientUnits="userSpaceOnUse" x1="664.2021" y1="30.3643" x2="657.8788" y2="36.6876" gradientTransform="matrix(-1 0 0 1 724.8438 0)">
				<stop  offset="0" style="stop-color:#FDE92B"/>
				<stop  offset="1" style="stop-color:#F6AF26"/>
			</linearGradient>
			<path fill="url(#SVGID_8_)" d="M47.246,16.978c0-0.013,0.002-0.018,0.002-0.018S47.246,16.965,47.246,16.978z"/>
			
				<linearGradient id="SVGID_9_" gradientUnits="userSpaceOnUse" x1="682.21" y1="35.2666" x2="678.9572" y2="38.5194" gradientTransform="matrix(-1 0 0 1 724.8438 0)">
				<stop  offset="0" style="stop-color:#FDE92B"/>
				<stop  offset="1" style="stop-color:#F6AF26"/>
			</linearGradient>
			<path fill="url(#SVGID_9_)" d="M29.835,48.081c0.293,0.004,1.633,0,7.647-2.783c0.257-0.117,1.927-0.096,1.927-0.096l1.689-1.386
				l-0.564-0.433c0,0,0.187-0.526,1.452-0.769c0.542-0.103,1.082-0.233,0.849-0.955c-0.139-0.415,0.845-0.912,1.785-1.058
				l0.185-0.907c0,0,0.141-0.86,0.333-0.58c0.188,0.29,1.121-0.042,0.797-0.95c-0.145-0.397-0.045-0.717,0.328-0.959
				c0.236-0.146,1.072-0.613,1.22-2.147c0.039-0.432,0.044-0.484,0.282-0.77c0.155-0.19,1.322,0.048,0.423-0.86
				c-0.307-0.315-0.423-0.112,0.279-1.633c0.223-0.497,1.227-1.098-0.184-1.24c-0.419-0.047-0.56-0.86,0.704-2.013
				c0.281-0.251,0.519-1.002-0.326-1.098c-0.418-0.051,0.279-1.343,0.279-1.343s0.047-1.054-0.795,0.38
				c-0.184,0.315-0.756-0.186,0.043-1.625c0.125-0.229,0.519-0.099,0.614,0.333c0.088,0.432,0.985-0.233,0-1.197
				c-0.138-0.156,0.333-0.808,0.333-0.808s0.51-2.354-0.803-2.45c0,0-0.285-1.676-0.424-1.287c-0.142,0.376-0.142,0.812-0.142,0.812
				s-0.848,0.147-0.752-1.335c0.03-0.371,0.514-0.297,0.613-0.051c0.097,0.237,0.895-1.478-0.328-1.383
				c-0.303,0.017-0.097-0.44-0.052-0.514c-0.056,0.09-0.402,0.756-0.7,0.315c-0.16-0.233-0.19-1.331,0.276-1.486
				c0.374-0.112,0.29-0.912-0.753-0.67c-0.269,0.065-0.277-0.669-0.277-0.669l-0.371-0.095c0,0-0.659-0.519-0.475-1.288
				c0.093-0.375,0.475-0.437,0.475-0.437s0.097-1.041-0.659-0.765c-0.376,0.147-0.705,0.433-0.705,0.433s-0.426,0.583-0.05,1.343
				c0.128,0.251-0.84-0.107-1.078-0.963c-0.104-0.363,0.047-0.717,0.047-0.717s-0.375-1.197-0.847,0.052
				c-0.309,0.821,1.076,2.104,1.97,2.342c0,0-0.086,1.818,0.944,2.635l0,0c-0.08,0.565-0.183,2.004,0.747,2.73
				c0,0-0.05,1.906,0.754,2.917c0,0-0.471,1.629,0.186,2.92c0,0-0.89,0.622-0.609,2.826c0,0-0.844,1.486-0.423,2.583
				c0,0-0.607,0.432-0.795,2.346c0,0-0.89,0.337-0.847,1.387c0.02,0.574-0.563,0.669-0.563,0.669s-0.473,0.099-0.517,1.202
				c-0.021,0.384-0.708,1.101-0.708,1.101l-0.283,0.67l-0.563,0.574l-0.605,0.907l-0.331,0.476c0,0-0.754,0.048-0.979,0.722
				c-0.125,0.332-1.041,1.002-1.041,1.002l-0.891-0.043c0,0-1.549,0.609-2.021,2.583c-0.143,0.605-1.5,1.003-3.521,1.716
				c-0.271,0.099-1.357,0.631-2.437,0.722C29.598,47.018,28.707,48.028,29.835,48.081z M44.292,36.394
				c0.233,0.185,0.095,1.538,0.095,1.538c-0.707-0.144-1.132,0.289-1.132,0.289v-1.732C44.008,36.057,44.058,36.204,44.292,36.394z
				 M45.557,35.344c0.078,0.519-0.374,0.332-0.374,0.332s-0.471,0.774-0.75,0.385c-0.283-0.385-0.333-1.771,0.091-1.629
				c0.35,0.117,0.28,0.761,0.476-0.095C45,34.337,45.421,34.337,45.557,35.344z M46.171,32.134c0,0,0.7,0.471,0.607,1.149
				c-0.067,0.432-0.843,0.955-1.078,0.721C45.466,33.763,45.093,31.896,46.171,32.134z M47.056,29.351c0,0,0.333,0.005,0.288,1.391
				c-0.015,0.406-0.521-0.384-0.521-0.384s-0.329,0.146,0.056,0.912c0.19,0.401-0.339,0.57-0.522-0.48
				C46.263,30.267,45.881,29.308,47.056,29.351z M47.483,26.483c0.24,0.185,0.189,1.244,0.189,1.244s-0.56-0.143-0.616-0.1
				c0,1.301-0.186,1.094-0.372,0.774c-0.288-0.48-0.233-1.867-0.233-1.867L47.483,26.483z M45.792,15.807
				c0,0-0.423-0.052-0.423,0.336c-0.002,1.288-0.521-0.008-0.702-0.574c-0.233-0.717,0.659-0.765,0.659-0.765
				C45.561,14.999,45.792,15.807,45.792,15.807z M46.594,18.581c0,0-0.471,0.389-0.562,0.726c-0.093,0.328-0.445-0.009-0.566-0.622
				c-0.283-1.387,0.566-1.288,0.566-1.288C46.732,17.63,46.594,18.581,46.594,18.581z M47.626,21.601c0,0-0.255-0.376-0.283,0.1
				c-0.095,1.49-0.776,0.294-0.893-0.052c-0.512-1.538,0.466-1.335,0.466-1.335C47.813,20.784,47.626,21.601,47.626,21.601z
				 M47.715,22.836c0.004,0.039,0.004,0.069,0.008,0.108c0.037,0.427-0.14-0.199-0.14-0.199S47.635,22.784,47.715,22.836
				c-0.042-1.059,0.516-1.378,0.516-1.378c1.035,0.67,0.194,2.151,0.194,2.151C48.46,23.359,47.963,23,47.715,22.836z
				 M47.438,25.096c0,0.238-0.158,0.329-0.382-0.047c-0.987-1.681,0.288-2.052,0.288-2.052c0.844,0.903,0.563,1.625,0.563,1.625
				S47.438,24.858,47.438,25.096z M47.672,29.351c-0.189-1.002,0.794-1.149,0.794-1.149C48.75,28.928,47.736,29.697,47.672,29.351z
				 M47.155,32.372c-0.557-0.575,0.799-1.331,0.799-1.331C48.19,32.708,47.639,32.873,47.155,32.372z M46.263,35.153
				c-1.035-0.721,0.892-1.3,0.892-1.3c0.614-0.043,0.352,0.622,0.188,0.916C46.917,35.534,46.728,35.474,46.263,35.153z
				 M45.045,37.067c-0.045-0.665,1.168-1.006,1.168-1.006s0.132,0.09,0.098,0.528c-0.045,0.574-0.942,1.343-0.942,1.343
				S45.071,37.448,45.045,37.067z M43.82,39.215c-0.05-0.67,0.892-0.955,0.892-0.955s0.482-0.129,0.333,0.385
				c-0.283,0.958-1.037,1.105-1.037,1.105S43.859,39.789,43.82,39.215z M42.228,41.134c0.004-0.722,1.17-0.817,1.17-0.817
				c0.378,0.484-0.704,0.722-0.704,0.722S42.222,41.557,42.228,41.134z M42.131,38.502l1.083-0.048
				c0.238,0.095,0.041,1.387,0.041,1.387c-0.235-0.242-1.075,0.285-1.075,0.285L42.131,38.502z M41.801,41.039
				c-0.038,0.345-0.416,0.376-0.416,0.376s-0.664,0.094-0.753,0.289c0,0-0.423-1.24,0.753-1.771
				C41.385,39.933,41.9,40.126,41.801,41.039z M40.395,42.473c0.092-0.574,1.406-0.475,1.406-0.475
				c0.378,0.475-1.363,1.046-1.363,1.046S40.325,42.896,40.395,42.473z M39.552,42.854c0,0-0.1-0.627-0.285-0.329
				c-0.605,0.955-0.89,0.54-0.702,0.09c0.374-0.911,1.168-1.144,1.168-1.144C40.438,41.803,39.552,42.854,39.552,42.854z
				 M37.906,44.918c0,0,0.19-0.631,0.418-1.102c0.233-0.476,1.32-0.337,1.32-0.337s0.421,0.647,0.138,0.622
				c-0.936-0.095-0.706,0.479-0.75,0.674C38.983,44.965,37.906,44.918,37.906,44.918z M35.227,45.73l0.802-0.956
				c0,0,0.421-1.637,1.411-2.207c0,0,0.613,0.666-0.285,2.294c-0.237,0.449-1.832,1.054-1.832,1.054L35.227,45.73z"/>
			
				<linearGradient id="SVGID_10_" gradientUnits="userSpaceOnUse" x1="689.7383" y1="42.4712" x2="686.3135" y2="45.896" gradientTransform="matrix(-1 0 0 1 724.8438 0)">
				<stop  offset="0" style="stop-color:#FDE92B"/>
				<stop  offset="1" style="stop-color:#F6AF26"/>
			</linearGradient>
			<path fill="url(#SVGID_10_)" d="M37.296,43.527c0,0-0.237,1.196-0.803,1.391C36.136,45.039,36.869,43.768,37.296,43.527z"/>
		</g>
		<g>
			<g>
				<polygon fill="#FFFFFF" points="36.397,23.083 37.326,25.321 37.271,28.625 36.342,26.393 				"/>
				<polygon fill="#FFFFFF" points="38.73,23.143 38.73,26.34 37.797,28.625 37.681,25.429 				"/>
				<polygon fill="#FFFFFF" points="35.579,26.91 35.579,24.742 34.764,24.05 34.764,27.48 36.923,28.738 				"/>
				<polygon fill="#FFFFFF" points="38.204,28.738 39.429,26.91 39.371,24.686 40.129,24.171 40.129,27.48 				"/>
				<polygon fill="#FFFFFF" points="34.298,25.498 33.542,25.498 33.542,29.153 36.746,29.153 34.213,28.068 				"/>
				<polygon fill="#FFFFFF" points="38.437,29.166 40.653,28.254 40.653,25.623 41.47,25.623 41.47,29.109 				"/>
			</g>
		</g>
		<g>
			<g>
				<g>
					<g>
						<polygon fill="#FFFFFF" points="16.58,25.191 16.58,25.969 16.636,25.969 16.64,25.187 16.58,25.191 						"/>
						<path fill="#FFFFFF" d="M16.727,26.063c0,0.056-0.052,0.113-0.117,0.113c-0.069-0.009-0.112-0.057-0.112-0.113
							c0-0.064,0.043-0.108,0.112-0.108C16.675,25.956,16.727,25.999,16.727,26.063L16.727,26.063z"/>
						<polygon fill="#FFFFFF" points="16.66,26.141 16.556,26.141 16.416,26.621 16.416,26.643 16.424,26.665 16.439,26.682 
							16.463,26.703 16.489,26.721 16.524,26.729 16.549,26.738 16.571,26.746 16.597,26.746 16.629,26.738 16.66,26.721 
							16.697,26.716 16.722,26.686 16.746,26.665 16.761,26.647 16.77,26.625 16.66,26.141 						"/>
					</g>
					<polygon fill="#FFFFFF" points="15.681,25.117 20.175,25.722 25.063,24.819 20.27,24.154 					"/>
					<path fill="#FFFFFF" d="M18.014,25.64l-0.264,1.258c0,0,1.862,0.406,4.671,0.008l-0.247-1.317l-2.026,0.411L18.014,25.64z"/>
				</g>
			</g>
			<path fill="#FFFFFF" d="M25.193,25.951c0,0-0.585,0.329,0.616,1.12C25.809,27.071,24.905,26.332,25.193,25.951z"/>
			<path fill="#FFFFFF" d="M25.225,26.12c0,0-0.013-0.613,0.584,0.838C25.809,26.958,25.333,25.981,25.225,26.12z"/>
			<path fill="#FFFFFF" d="M18.516,28.933c0,0,0.613,0.669,0.27,0.938C18.786,29.871,18.909,29.611,18.516,28.933z"/>
			<path fill="#FFFFFF" d="M23.542,28.017c0,0,0.193-0.147,0.098-0.324c-0.264,0.091-0.541,0.186-0.83,0.29
				C23.107,28.06,23.462,28.12,23.542,28.017z"/>
			<path fill="#FFFFFF" d="M21.408,28.349c-0.385,0.043-0.538-0.117-0.606-0.29c-1.241,0.497-2.217,0.83-2.217,0.83
				c0.687,0.627,0.315,0.981,0.315,0.981c1.024-0.644,2.067-1.15,3.009-1.539c0.063-0.139,0.115-0.264,0.115-0.264
				C21.816,28.246,21.408,28.349,21.408,28.349z"/>
			<path fill="#FFFFFF" d="M22.25,27.645c0,0,0,0,0.002,0c0.035,0,0.071,0,0.086,0.009c0,0,1.166-0.933,1.378,0.012
				c1.223-0.367,2.031-0.518,2.031-0.518c-0.951-0.73-0.817-1.05-0.689-1.171c-0.799,0.54-1.929,1.094-3.031,1.577
				c0.086,0.056,0.143,0.1,0.143,0.1C22.179,27.645,22.213,27.645,22.25,27.645z"/>
			<path fill="#FFFFFF" d="M22.494,28.098c0,0,0.011-0.004,0.018-0.004c-0.011-0.013-0.021-0.017-0.032-0.026
				C22.479,28.068,22.481,28.081,22.494,28.098z"/>
			<path fill="#FFFFFF" d="M25.059,25.977c0.026-0.017,0.058-0.039,0.084-0.056C25.144,25.921,25.1,25.938,25.059,25.977z"/>
			<path fill="#FFFFFF" d="M20.946,27.593c-0.218,0.186-0.052,0.363-0.002,0.415c0.283-0.125,0.575-0.238,0.873-0.363
				c-0.254-0.082-0.514-0.151-0.514-0.151C21.071,27.455,20.946,27.593,20.946,27.593z"/>
			<path fill="#FFFFFF" d="M21.747,28.721c0,0-0.533,1.132-0.829,1.435l0.436-0.043c0,0,0.199-0.272,0.657-1.473
				c0,0,0.013-0.021,0.121-0.397c-0.074,0.026-0.142,0.056-0.222,0.091C21.84,28.509,21.747,28.712,21.747,28.721z"/>
			<path fill="#FFFFFF" d="M20.946,27.593c0,0,0.125-0.139,0.356-0.1c0,0,0.26,0.069,0.514,0.151
				c0.074-0.035,0.139-0.064,0.212-0.091c-0.324-0.22-1.112-0.652-1.257,0.168c0,0-0.028,0.169,0.031,0.337
				c0.052-0.017,0.097-0.039,0.142-0.052C20.894,27.956,20.728,27.779,20.946,27.593z"/>
			<polygon fill="#FFFFFF" points="22.252,27.965 22.252,27.965 22.25,27.965 			"/>
			<path fill="#FFFFFF" d="M22.25,27.965v-0.32c-0.037,0-0.072,0-0.08,0.009c0,0-0.057-0.044-0.143-0.1
				c-0.073,0.027-0.138,0.056-0.212,0.091c0.104,0.021,0.205,0.065,0.286,0.095v0.129c0,0-1.014,0.329-1.141,0.147
				c0,0-0.008-0.004-0.017-0.009c-0.045,0.013-0.09,0.035-0.142,0.052c0.069,0.173,0.222,0.333,0.606,0.29
				c0,0,0.408-0.104,0.616-0.281c0.013-0.009,0.03-0.03,0.043-0.043c-0.013,0.013-0.03,0.035-0.043,0.043
				c0,0-0.052,0.125-0.115,0.264c0.08-0.035,0.148-0.065,0.222-0.091c0.026-0.078,0.047-0.168,0.082-0.276H22.25z"/>
			<path fill="#FFFFFF" d="M23.717,27.666c-0.026,0.018-0.052,0.018-0.078,0.026c0.095,0.177-0.098,0.324-0.098,0.324
				c-0.08,0.104-0.435,0.043-0.732-0.035c-0.1,0.035-0.199,0.078-0.298,0.112c0.216,0.16,0.583,0.255,0.583,0.255
				c0.76,0.087,0.64-0.627,0.64-0.627C23.726,27.701,23.721,27.684,23.717,27.666z"/>
			<path fill="#FFFFFF" d="M22.494,28.639c0.454,1.201,0.646,1.473,0.646,1.473l0.443,0.043c-0.298-0.303-0.829-1.435-0.829-1.435
				c-0.005-0.009-0.208-0.492-0.26-0.623c-0.051,0.018-0.099,0.039-0.146,0.065C22.468,28.622,22.494,28.639,22.494,28.639z"/>
			<polygon fill="#FFFFFF" points="22.25,27.965 22.25,27.965 22.25,27.965 			"/>
			<path fill="#FFFFFF" d="M22.397,27.869V27.74c0.279-0.113,0.802-0.246,0.802-0.246c0.233-0.039,0.354,0.1,0.354,0.1
				c0.043,0.034,0.067,0.073,0.087,0.099c0.026-0.009,0.052-0.009,0.078-0.026c-0.212-0.945-1.378-0.012-1.378-0.012
				c-0.015-0.009-0.052-0.009-0.086-0.009v0.32h0.039c0.018,0.065,0.037,0.133,0.056,0.199c0.047-0.026,0.095-0.048,0.146-0.065
				c-0.013-0.017-0.015-0.03-0.015-0.03c-0.016-0.009-0.035-0.03-0.05-0.043c0.015,0.013,0.034,0.035,0.05,0.043
				c0.011,0.009,0.021,0.013,0.032,0.026c0.1-0.035,0.199-0.078,0.298-0.112C22.585,27.93,22.397,27.869,22.397,27.869z"/>
			<polygon fill="#FFFFFF" points="22.25,27.965 22.25,27.965 22.252,27.965 22.252,27.645 22.25,27.645 			"/>
		</g>
		<g>
			<g>
				<linearGradient id="SVGID_11_" gradientUnits="userSpaceOnUse" x1="26.9019" y1="39.814" x2="34.0858" y2="39.814">
					<stop  offset="0" style="stop-color:#FDE92B"/>
					<stop  offset="1" style="stop-color:#E93E2E"/>
				</linearGradient>
				<path fill="url(#SVGID_11_)" d="M31.3,38.891c0,0-0.403-4.291-0.349-4.831v-0.189l-1.857,0.017l0.067,11.851l0.341-1.503
					c0,0,0.938-2.337,1.681-2.873c0,0,0.254-0.169,0.333-0.351C31.516,41.012,31.581,40.304,31.3,38.891z M27.247,33.871v0.189
					c0.056,0.54-0.342,4.831-0.342,4.831c-0.284,1.413-0.224,2.121-0.224,2.121c0.082,0.182,0.337,0.351,0.337,0.351
					c0.743,0.536,1.676,2.873,1.676,2.873l0.357,1.521l-0.002-6.788l0.006-5.081L27.247,33.871z"/>
			</g>
		</g>
		<linearGradient id="SVGID_12_" gradientUnits="userSpaceOnUse" x1="29.0181" y1="36.4287" x2="29.1221" y2="36.4287">
			<stop  offset="0" style="stop-color:#FDE92B"/>
			<stop  offset="1" style="stop-color:#00864A"/>
		</linearGradient>
		<polygon fill="url(#SVGID_12_)" points="29.04,38.969 29.122,38.969 29.122,33.892 29.122,33.888 29.018,33.888 		"/>
		<linearGradient id="SVGID_13_" gradientUnits="userSpaceOnUse" x1="29.1255" y1="33.6924" x2="29.1255" y2="33.8831">
			<stop  offset="0" style="stop-color:#FDE92B"/>
			<stop  offset="1" style="stop-color:#00864A"/>
		</linearGradient>
		<rect x="26.539" y="33.681" fill="url(#SVGID_13_)" width="5.174" height="0.233"/>
		<path fill="#80BF48" d="M29.671,38.641c0,0.323-0.268,0.583-0.597,0.583c-0.323,0-0.591-0.259-0.591-0.583
			c0-0.32,0.268-0.588,0.591-0.588C29.403,38.053,29.671,38.32,29.671,38.641z"/>
		<path fill="#009E53" d="M46.326,41.337l1.451,5.059c0,0,5.328-1.883,4.224-5.128C52.001,41.268,51.066,39.655,46.326,41.337z"/>
		<path fill="#80BF48" d="M52.146,41.915c0,0-0.666,6.425,3.093,7.367c0,0,0.592,2.302-9.06,4.762c0,0-10.46,2.885-17.239,2.302
			v-7.284C28.94,49.062,51.189,49.282,52.146,41.915z"/>
		<path fill="#80BF48" d="M5.461,33.676l1.89,1.105c6.272,4.36,4.303,6.749,4.303,6.749c-2.674-1.499-5.284-0.307-5.284-0.307
			c-1.541-1.184-3.002-2-4.159-2.548C2.212,38.675,7.697,38.347,5.461,33.676z"/>
		<path fill="#009E53" d="M11.784,41.324l-1.382,5.072c0,0-5.319-1.883-4.217-5.128C6.185,41.268,7.217,39.738,11.784,41.324z"/>
		<path fill="#80BF48" d="M6.04,41.915c0,0,0.663,6.425-3.097,7.367c0,0-0.588,2.302,9.066,4.762c0,0,10.459,2.885,17.234,2.302
			v-7.284C29.243,49.062,6.997,49.282,6.04,41.915z"/>
		<g>
			<g>
				<path fill="#00864A" d="M9.982,50.379l0.208-0.705l1.832,0.527c-0.006,0.018-0.008,0.048-0.02,0.074
					c-0.01,0.03-0.019,0.065-0.034,0.121c-0.17,0.58-0.463,0.977-0.862,1.206c-0.406,0.225-0.886,0.259-1.452,0.104
					c-0.276-0.078-0.51-0.189-0.699-0.333c-0.19-0.143-0.346-0.319-0.467-0.54c-0.112-0.207-0.182-0.428-0.208-0.669
					c-0.021-0.247,0-0.489,0.069-0.734c0.073-0.243,0.186-0.459,0.337-0.641c0.146-0.19,0.333-0.34,0.555-0.453
					c0.219-0.122,0.452-0.187,0.702-0.208c0.242-0.022,0.495,0,0.752,0.081c0.333,0.087,0.613,0.243,0.829,0.446
					c0.216,0.203,0.376,0.454,0.476,0.769l-0.917,0.139c-0.063-0.147-0.138-0.281-0.242-0.376c-0.101-0.095-0.225-0.168-0.375-0.211
					c-0.276-0.074-0.519-0.043-0.735,0.086C9.516,49.2,9.365,49.424,9.27,49.736c-0.095,0.319-0.086,0.591,0.018,0.82
					c0.106,0.229,0.296,0.384,0.574,0.458c0.238,0.07,0.45,0.07,0.64,0c0.194-0.065,0.328-0.19,0.41-0.372L9.982,50.379z"/>
				<path fill="#00864A" d="M12.084,52.271l0.581-2.332l0.791,0.193l-0.138,0.549c0.133-0.178,0.28-0.302,0.449-0.368
					c0.165-0.068,0.351-0.077,0.546-0.029c0.035,0.004,0.067,0.017,0.097,0.029c0.035,0.005,0.069,0.018,0.1,0.027l-0.262,0.734
					c-0.05-0.026-0.095-0.048-0.141-0.07c-0.049-0.016-0.095-0.034-0.138-0.043c-0.204-0.047-0.376-0.029-0.519,0.07
					c-0.138,0.099-0.242,0.25-0.293,0.475l-0.24,0.968L12.084,52.271z"/>
				<path fill="#00864A" d="M17.029,52.306l-1.823-0.371c-0.039,0.181-0.02,0.328,0.056,0.449c0.072,0.112,0.194,0.191,0.364,0.229
					c0.134,0.026,0.246,0.026,0.343-0.005c0.098-0.033,0.18-0.09,0.245-0.172l0.587,0.379c-0.117,0.169-0.276,0.281-0.498,0.337
					c-0.215,0.056-0.461,0.056-0.74,0.005c-0.421-0.09-0.733-0.272-0.938-0.549c-0.206-0.281-0.268-0.604-0.192-0.98
					c0.078-0.367,0.272-0.644,0.579-0.838c0.303-0.189,0.648-0.241,1.035-0.168c0.394,0.082,0.688,0.272,0.865,0.566
					c0.18,0.294,0.222,0.653,0.129,1.076L17.029,52.306z M16.303,51.662c0.013-0.13-0.017-0.255-0.09-0.354
					c-0.065-0.099-0.168-0.159-0.303-0.177c-0.136-0.039-0.254-0.018-0.35,0.035c-0.104,0.056-0.175,0.16-0.233,0.298L16.303,51.662
					z"/>
				<path fill="#00864A" d="M20.083,52.808l-1.836-0.303c-0.033,0.186-0.004,0.341,0.071,0.449c0.076,0.117,0.201,0.186,0.37,0.22
					c0.129,0.013,0.248,0.01,0.345-0.017c0.097-0.039,0.173-0.095,0.237-0.187l0.601,0.359c-0.108,0.172-0.268,0.285-0.48,0.354
					c-0.215,0.064-0.462,0.074-0.748,0.034c-0.418-0.073-0.738-0.241-0.958-0.513c-0.21-0.272-0.29-0.592-0.225-0.968
					c0.062-0.376,0.239-0.653,0.535-0.86c0.298-0.204,0.639-0.268,1.029-0.207c0.406,0.064,0.697,0.237,0.89,0.522
					c0.185,0.285,0.246,0.645,0.172,1.076L20.083,52.808z M19.323,52.202c0.014-0.138-0.021-0.259-0.099-0.358
					c-0.073-0.091-0.176-0.151-0.304-0.168c-0.143-0.026-0.262-0.005-0.353,0.061c-0.099,0.057-0.172,0.159-0.224,0.307
					L19.323,52.202z"/>
				<path fill="#00864A" d="M20.496,53.913l0.296-2.381l0.786,0.087l-0.062,0.484c0.138-0.186,0.289-0.307,0.447-0.385
					c0.16-0.073,0.346-0.091,0.558-0.073c0.155,0.017,0.29,0.07,0.41,0.129c0.112,0.065,0.208,0.143,0.272,0.256
					c0.056,0.085,0.09,0.185,0.104,0.307c0.008,0.116,0.004,0.292-0.026,0.517l-0.165,1.371l-0.864-0.113l0.16-1.274
					c0.021-0.185,0.009-0.332-0.043-0.418c-0.052-0.1-0.151-0.156-0.29-0.169c-0.182-0.03-0.321,0.026-0.414,0.142
					c-0.1,0.122-0.165,0.325-0.206,0.619l-0.123,0.998L20.496,53.913z"/>
				<path fill="#00864A" d="M25.655,50.949l0.966,0.043l-0.083,1.689c-0.005,0.247-0.009,0.428,0,0.532
					c0.004,0.112,0.024,0.208,0.048,0.276c0.039,0.092,0.095,0.165,0.189,0.216c0.087,0.052,0.204,0.074,0.333,0.083
					c0.134,0.004,0.246-0.013,0.337-0.056c0.094-0.043,0.164-0.108,0.207-0.195c0.026-0.069,0.059-0.159,0.078-0.272
					c0.017-0.099,0.03-0.275,0.043-0.531l0.01-0.238l0.067-1.447l0.959,0.043l-0.084,1.836c-0.02,0.379-0.054,0.661-0.11,0.838
					c-0.052,0.177-0.143,0.329-0.255,0.458c-0.13,0.134-0.303,0.233-0.519,0.29c-0.216,0.064-0.47,0.086-0.772,0.073
					c-0.307-0.009-0.562-0.06-0.767-0.138c-0.21-0.078-0.372-0.194-0.484-0.346c-0.105-0.126-0.184-0.29-0.218-0.471
					c-0.039-0.182-0.048-0.462-0.035-0.847l0.013-0.363L25.655,50.949z"/>
				<path fill="#00864A" d="M29.459,54.575l-0.021-2.398l0.789-0.013l0.006,0.488c0.111-0.199,0.242-0.346,0.396-0.437
					c0.148-0.094,0.324-0.137,0.54-0.137c0.153-0.005,0.296,0.021,0.421,0.068c0.124,0.047,0.229,0.117,0.304,0.208
					c0.07,0.083,0.115,0.182,0.146,0.298c0.03,0.116,0.043,0.289,0.043,0.527l0.017,1.365l-0.866,0.009l-0.015-1.288
					c0-0.19-0.035-0.332-0.1-0.414c-0.067-0.086-0.168-0.129-0.311-0.129c-0.179,0-0.311,0.068-0.391,0.199
					c-0.085,0.138-0.119,0.345-0.119,0.639l0.013,1.003L29.459,54.575z"/>
				<path fill="#00864A" d="M32.626,51.36c-0.014-0.125,0.029-0.238,0.116-0.333c0.086-0.099,0.197-0.15,0.328-0.155
					c0.139-0.009,0.25,0.03,0.346,0.117c0.099,0.086,0.143,0.198,0.151,0.332c0.009,0.126-0.03,0.238-0.121,0.338
					c-0.086,0.094-0.199,0.155-0.324,0.159c-0.131,0.004-0.241-0.043-0.346-0.125C32.682,51.602,32.628,51.49,32.626,51.36z
					 M32.82,54.509l-0.123-2.398l0.862-0.042l0.129,2.394L32.82,54.509z"/>
				<path fill="#00864A" d="M35.175,54.362l-1.317-2.293l0.922-0.083l0.512,1.024c0.004,0.009,0.009,0.026,0.017,0.035
					c0.07,0.134,0.11,0.246,0.134,0.328c0.004-0.082,0.021-0.189,0.064-0.324c0.009-0.025,0.014-0.048,0.014-0.048l0.324-1.106
					l0.894-0.078l-0.894,2.48L35.175,54.362z"/>
				<path fill="#00864A" d="M39.729,52.781l-1.845,0.255c0.023,0.185,0.091,0.324,0.203,0.406c0.112,0.086,0.25,0.121,0.426,0.091
					c0.132-0.014,0.239-0.056,0.317-0.113c0.083-0.061,0.141-0.143,0.173-0.242l0.683,0.16c-0.052,0.195-0.164,0.354-0.35,0.483
					c-0.181,0.121-0.414,0.208-0.7,0.246c-0.418,0.056-0.777-0.008-1.069-0.199c-0.292-0.199-0.46-0.483-0.517-0.855
					c-0.052-0.375,0.028-0.699,0.249-0.981c0.218-0.285,0.529-0.449,0.918-0.501c0.404-0.06,0.743,0.018,1.011,0.234
					c0.266,0.22,0.432,0.54,0.493,0.98L39.729,52.781z M38.822,52.423c-0.039-0.134-0.104-0.233-0.206-0.307
					c-0.104-0.064-0.218-0.085-0.348-0.073c-0.143,0.021-0.249,0.073-0.324,0.159c-0.065,0.087-0.104,0.203-0.111,0.363
					L38.822,52.423z"/>
				<path fill="#00864A" d="M40.476,53.693l-0.467-2.354l0.802-0.151l0.11,0.553c0.039-0.216,0.121-0.397,0.245-0.523
					c0.123-0.125,0.285-0.212,0.491-0.246c0.032-0.009,0.068-0.017,0.103-0.021c0.031,0,0.067-0.009,0.108-0.009l0.061,0.778
					c-0.052-0.013-0.106-0.013-0.154-0.013c-0.05,0.01-0.099,0.013-0.145,0.018c-0.207,0.043-0.354,0.138-0.441,0.281
					c-0.086,0.143-0.108,0.324-0.065,0.553l0.195,0.972L40.476,53.693z"/>
				<path fill="#00864A" d="M42.498,53.102l0.018-0.666c0.148,0.078,0.302,0.129,0.461,0.15c0.165,0.013,0.316,0.005,0.467-0.021
					c0.106-0.03,0.182-0.069,0.225-0.112c0.052-0.048,0.065-0.099,0.052-0.155c-0.028-0.108-0.156-0.16-0.393-0.16
					c-0.074,0-0.139,0-0.185,0c-0.27-0.017-0.472-0.056-0.613-0.134c-0.141-0.09-0.233-0.225-0.279-0.397
					c-0.056-0.229-0.013-0.433,0.129-0.609c0.138-0.173,0.361-0.307,0.652-0.371c0.156-0.04,0.315-0.057,0.484-0.057
					c0.167,0,0.342,0.013,0.523,0.048l-0.034,0.604c-0.13-0.048-0.255-0.073-0.38-0.086c-0.128-0.004-0.247,0-0.363,0.025
					c-0.095,0.026-0.164,0.048-0.207,0.1c-0.044,0.039-0.052,0.082-0.044,0.142c0.022,0.083,0.151,0.129,0.387,0.134
					c0.053,0,0.094,0,0.119,0c0.311,0.013,0.538,0.061,0.683,0.146c0.143,0.083,0.233,0.212,0.283,0.403
					c0.056,0.233,0.011,0.457-0.141,0.648c-0.149,0.186-0.379,0.324-0.691,0.393c-0.207,0.052-0.41,0.069-0.601,0.06
					C42.863,53.187,42.677,53.162,42.498,53.102z"/>
				<path fill="#00864A" d="M44.292,49.627c-0.035-0.129-0.022-0.251,0.043-0.363c0.061-0.107,0.155-0.182,0.283-0.22
					c0.128-0.03,0.25-0.022,0.363,0.043c0.114,0.064,0.188,0.151,0.225,0.281c0.039,0.13,0.023,0.246-0.04,0.363
					c-0.063,0.108-0.16,0.186-0.285,0.22c-0.128,0.036-0.245,0.022-0.362-0.043C44.399,49.839,44.326,49.745,44.292,49.627z
					 M45.206,52.643l-0.668-2.311l0.832-0.225l0.667,2.303L45.206,52.643z"/>
				<path fill="#00864A" d="M46.879,52.159l-0.562-1.711l-0.35,0.108l-0.186-0.57l0.35-0.108l-0.227-0.688l0.819-0.255l0.223,0.687
					l0.352-0.112l0.185,0.57l-0.35,0.109l0.56,1.715L46.879,52.159z"/>
				<path fill="#00864A" d="M48.78,52.674l0.136-1.564l-1.648-1.573l0.895-0.328l0.631,0.696c0.057,0.057,0.104,0.113,0.143,0.164
					c0.043,0.052,0.078,0.104,0.104,0.144c-0.011-0.048-0.017-0.104-0.021-0.178c-0.004-0.06-0.004-0.129-0.004-0.207l0.015-0.934
					l0.866-0.315l-0.211,3.768L48.78,52.674z"/>
			</g>
			<g>
				<path fill="#FFFFFF" d="M10.125,50.668l0.207-0.7l1.828,0.519c0,0.03-0.009,0.056-0.017,0.082
					c-0.005,0.021-0.018,0.064-0.035,0.112c-0.173,0.579-0.458,0.98-0.86,1.21c-0.407,0.224-0.891,0.263-1.452,0.099
					c-0.271-0.078-0.509-0.177-0.695-0.329c-0.195-0.138-0.35-0.324-0.471-0.531c-0.113-0.212-0.182-0.441-0.208-0.683
					c-0.021-0.241,0-0.479,0.069-0.725c0.078-0.25,0.19-0.472,0.337-0.653c0.151-0.177,0.333-0.332,0.558-0.454
					c0.216-0.112,0.449-0.18,0.695-0.194c0.249-0.021,0.501,0.004,0.754,0.078c0.339,0.094,0.615,0.238,0.827,0.449
					c0.22,0.203,0.378,0.454,0.478,0.761l-0.916,0.151c-0.054-0.159-0.141-0.29-0.235-0.38c-0.1-0.104-0.229-0.177-0.38-0.216
					c-0.277-0.078-0.522-0.051-0.734,0.095c-0.214,0.129-0.372,0.358-0.462,0.666c-0.091,0.315-0.086,0.592,0.014,0.816
					c0.112,0.233,0.301,0.38,0.578,0.462c0.238,0.069,0.454,0.069,0.642,0c0.19-0.069,0.327-0.19,0.411-0.371L10.125,50.668z"/>
				<path fill="#FFFFFF" d="M12.225,52.565l0.585-2.333l0.788,0.186l-0.138,0.558c0.134-0.187,0.283-0.307,0.449-0.376
					c0.165-0.065,0.348-0.073,0.548-0.027c0.035,0.01,0.07,0.013,0.1,0.027c0.034,0.013,0.067,0.021,0.099,0.034l-0.272,0.726
					c-0.041-0.021-0.086-0.052-0.132-0.064c-0.05-0.022-0.097-0.035-0.142-0.044c-0.203-0.051-0.374-0.03-0.516,0.069
					c-0.139,0.091-0.236,0.256-0.294,0.476l-0.24,0.968L12.225,52.565z"/>
				<path fill="#FFFFFF" d="M17.176,52.591l-1.827-0.372c-0.034,0.182-0.017,0.333,0.056,0.454c0.073,0.112,0.194,0.194,0.367,0.224
					c0.125,0.03,0.242,0.022,0.339,0c0.1-0.03,0.18-0.087,0.244-0.177l0.585,0.38c-0.114,0.172-0.28,0.276-0.499,0.336
					c-0.208,0.064-0.458,0.064-0.741,0c-0.417-0.083-0.726-0.259-0.931-0.54c-0.209-0.285-0.272-0.609-0.192-0.985
					c0.08-0.363,0.27-0.64,0.575-0.834c0.304-0.186,0.651-0.246,1.04-0.164c0.397,0.077,0.683,0.272,0.859,0.557
					c0.177,0.294,0.22,0.648,0.132,1.08L17.176,52.591z M16.441,51.951c0.017-0.134-0.015-0.25-0.086-0.35
					c-0.069-0.103-0.172-0.164-0.298-0.19c-0.139-0.025-0.254-0.013-0.356,0.043c-0.097,0.062-0.175,0.157-0.231,0.299
					L16.441,51.951z"/>
				<path fill="#FFFFFF" d="M20.226,53.097l-1.841-0.299c-0.027,0.187-0.002,0.333,0.074,0.45c0.08,0.112,0.205,0.182,0.38,0.216
					c0.127,0.017,0.24,0.014,0.333-0.021c0.099-0.03,0.184-0.09,0.247-0.181l0.596,0.358c-0.11,0.169-0.266,0.286-0.479,0.355
					c-0.212,0.069-0.458,0.077-0.743,0.03c-0.426-0.069-0.743-0.238-0.959-0.51c-0.216-0.268-0.292-0.596-0.227-0.972
					c0.058-0.368,0.24-0.657,0.536-0.86c0.296-0.203,0.637-0.264,1.028-0.208c0.402,0.07,0.702,0.243,0.888,0.532
					c0.19,0.281,0.249,0.635,0.175,1.072L20.226,53.097z M19.47,52.483c0.009-0.135-0.026-0.247-0.104-0.346
					c-0.073-0.094-0.177-0.151-0.306-0.177c-0.141-0.021-0.258,0-0.35,0.06c-0.097,0.065-0.169,0.165-0.225,0.307L19.47,52.483z"/>
				<path fill="#FFFFFF" d="M20.641,54.199l0.294-2.381l0.787,0.091l-0.063,0.483c0.137-0.182,0.288-0.306,0.452-0.379
					c0.16-0.073,0.341-0.099,0.553-0.073c0.156,0.012,0.294,0.064,0.406,0.125c0.121,0.065,0.212,0.146,0.277,0.25
					c0.056,0.086,0.088,0.19,0.104,0.306c0.011,0.125,0.005,0.294-0.022,0.519l-0.168,1.37l-0.862-0.104l0.158-1.278
					c0.021-0.186,0.01-0.329-0.043-0.423c-0.054-0.091-0.147-0.147-0.29-0.161c-0.177-0.025-0.32,0.022-0.417,0.139
					c-0.097,0.126-0.164,0.329-0.197,0.618l-0.129,0.998L20.641,54.199z"/>
				<path fill="#FFFFFF" d="M25.795,51.234l0.968,0.048l-0.078,1.688c-0.009,0.243-0.013,0.419-0.004,0.541
					c0.008,0.104,0.027,0.199,0.052,0.268c0.034,0.09,0.095,0.16,0.184,0.211c0.088,0.053,0.205,0.078,0.331,0.086
					c0.138,0.009,0.25-0.016,0.345-0.055c0.087-0.04,0.158-0.109,0.206-0.2c0.032-0.064,0.056-0.155,0.076-0.264
					c0.017-0.104,0.035-0.285,0.043-0.527l0.013-0.246l0.065-1.448l0.959,0.048l-0.085,1.822c-0.018,0.394-0.054,0.666-0.108,0.847
					s-0.145,0.328-0.259,0.458c-0.13,0.134-0.298,0.229-0.517,0.289c-0.212,0.069-0.474,0.086-0.778,0.074
					c-0.303-0.013-0.553-0.065-0.765-0.139c-0.207-0.078-0.369-0.195-0.483-0.341c-0.106-0.129-0.177-0.293-0.216-0.475
					c-0.043-0.182-0.054-0.462-0.03-0.847l0.013-0.363L25.795,51.234z"/>
				<path fill="#FFFFFF" d="M29.608,54.864l-0.032-2.402l0.791-0.004l0.008,0.483c0.112-0.189,0.244-0.341,0.393-0.436
					c0.146-0.095,0.331-0.139,0.54-0.139c0.16-0.004,0.298,0.018,0.424,0.065c0.129,0.052,0.231,0.125,0.307,0.211
					c0.067,0.079,0.112,0.182,0.141,0.298c0.027,0.117,0.045,0.29,0.049,0.523l0.013,1.374l-0.864,0.009l-0.016-1.288
					c-0.002-0.19-0.035-0.333-0.101-0.419c-0.065-0.082-0.168-0.125-0.312-0.125c-0.181,0.005-0.306,0.069-0.393,0.194
					c-0.083,0.13-0.116,0.35-0.116,0.632l0.008,1.015L29.608,54.864z"/>
				<path fill="#FFFFFF" d="M32.765,51.649c-0.009-0.125,0.03-0.242,0.12-0.329c0.091-0.104,0.199-0.15,0.329-0.16
					c0.134-0.004,0.251,0.035,0.346,0.117c0.095,0.083,0.146,0.195,0.15,0.324c0.009,0.134-0.03,0.242-0.121,0.346
					c-0.086,0.099-0.198,0.15-0.328,0.155c-0.127,0.008-0.242-0.035-0.346-0.125C32.82,51.892,32.773,51.779,32.765,51.649z
					 M32.965,54.79l-0.127-2.388l0.868-0.048l0.122,2.398L32.965,54.79z"/>
				<path fill="#FFFFFF" d="M35.318,54.648l-1.316-2.294l0.92-0.078L35.43,53.3c0.013,0.008,0.018,0.018,0.026,0.034
					c0.065,0.134,0.104,0.242,0.125,0.324c0.006-0.082,0.03-0.18,0.069-0.319c0.004-0.031,0.013-0.048,0.018-0.065l0.319-1.089
					l0.895-0.082l-0.891,2.489L35.318,54.648z"/>
				<path fill="#FFFFFF" d="M39.871,53.067l-1.844,0.259c0.025,0.19,0.094,0.32,0.207,0.406c0.108,0.082,0.246,0.112,0.423,0.09
					c0.129-0.013,0.233-0.056,0.315-0.112c0.086-0.056,0.143-0.143,0.177-0.243l0.678,0.16c-0.054,0.194-0.168,0.359-0.346,0.48
					c-0.186,0.129-0.419,0.211-0.699,0.25c-0.425,0.056-0.783-0.013-1.076-0.208c-0.29-0.19-0.458-0.476-0.519-0.851
					c-0.047-0.372,0.03-0.7,0.255-0.981c0.218-0.276,0.525-0.449,0.915-0.501c0.402-0.051,0.74,0.022,1.007,0.243
					c0.27,0.211,0.432,0.536,0.497,0.977L39.871,53.067z M38.964,52.708c-0.037-0.134-0.108-0.229-0.208-0.304
					c-0.099-0.064-0.218-0.09-0.345-0.073c-0.141,0.017-0.245,0.073-0.324,0.164c-0.067,0.079-0.106,0.195-0.112,0.355
					L38.964,52.708z"/>
				<path fill="#FFFFFF" d="M40.619,53.982l-0.467-2.355l0.802-0.155l0.114,0.561c0.039-0.219,0.121-0.397,0.241-0.527
					c0.126-0.129,0.286-0.211,0.488-0.246c0.031-0.01,0.07-0.013,0.102-0.026c0.034,0,0.071,0,0.104,0l0.071,0.773
					c-0.056-0.004-0.108-0.017-0.158-0.004c-0.049,0-0.097,0.004-0.146,0.009c-0.206,0.039-0.352,0.134-0.439,0.277
					c-0.086,0.142-0.11,0.329-0.063,0.557l0.193,0.977L40.619,53.982z"/>
				<path fill="#FFFFFF" d="M42.636,53.386l0.021-0.665c0.147,0.086,0.308,0.129,0.462,0.151c0.16,0.013,0.316,0.013,0.466-0.021
					c0.104-0.026,0.177-0.064,0.225-0.099c0.053-0.056,0.065-0.109,0.053-0.177c-0.026-0.101-0.154-0.148-0.391-0.148
					c-0.078,0-0.136,0-0.186-0.003c-0.268-0.004-0.476-0.057-0.615-0.134c-0.141-0.087-0.233-0.216-0.276-0.394
					c-0.057-0.233-0.014-0.431,0.125-0.609c0.145-0.173,0.368-0.297,0.659-0.371c0.151-0.039,0.315-0.052,0.479-0.057
					c0.167-0.003,0.344,0.013,0.523,0.043l-0.031,0.605c-0.131-0.042-0.261-0.074-0.387-0.082c-0.12-0.014-0.242-0.004-0.354,0.026
					c-0.095,0.021-0.168,0.048-0.213,0.094c-0.037,0.039-0.053,0.091-0.037,0.147c0.017,0.078,0.146,0.125,0.382,0.129
					c0.052,0.005,0.09,0.005,0.117,0.005c0.313,0.013,0.542,0.06,0.685,0.151c0.141,0.074,0.242,0.212,0.281,0.397
					c0.065,0.238,0.013,0.449-0.136,0.644c-0.153,0.189-0.385,0.328-0.689,0.402c-0.212,0.047-0.41,0.068-0.605,0.064
					C43.008,53.478,42.818,53.451,42.636,53.386z"/>
				<path fill="#FFFFFF" d="M44.434,49.913c-0.039-0.129-0.019-0.247,0.043-0.354c0.063-0.116,0.16-0.19,0.286-0.224
					c0.129-0.035,0.251-0.022,0.36,0.034c0.115,0.061,0.188,0.16,0.223,0.285c0.041,0.13,0.025,0.254-0.035,0.363
					c-0.064,0.116-0.16,0.19-0.29,0.224c-0.121,0.035-0.242,0.021-0.358-0.047C44.546,50.129,44.47,50.033,44.434,49.913z
					 M45.346,52.928l-0.668-2.307l0.835-0.233l0.666,2.307L45.346,52.928z"/>
				<path fill="#FFFFFF" d="M47.021,52.453l-0.559-1.719L46.11,50.85l-0.187-0.575l0.346-0.108l-0.22-0.687l0.812-0.255l0.225,0.687
					l0.352-0.108l0.188,0.57l-0.35,0.108l0.562,1.711L47.021,52.453z"/>
				<path fill="#FFFFFF" d="M48.922,52.963l0.139-1.564l-1.651-1.572l0.896-0.328l0.629,0.691c0.057,0.06,0.102,0.116,0.145,0.167
					c0.037,0.053,0.071,0.1,0.099,0.151c-0.011-0.061-0.015-0.12-0.024-0.181c0-0.061-0.004-0.138,0-0.211l0.013-0.929l0.868-0.324
					l-0.211,3.767L48.922,52.963z"/>
			</g>
		</g>
	</g>
	<g>
		<g>
			<path fill="#50B848" d="M80.259,27.036v-5.029h11.774V32.28c-2.256,1.491-4.248,2.506-5.982,3.055
				c-1.734,0.536-3.791,0.809-6.167,0.809c-2.93,0-5.318-0.488-7.159-1.465c-1.85-0.976-3.277-2.423-4.294-4.354
				c-1.014-1.927-1.521-4.144-1.521-6.641c0-2.626,0.558-4.912,1.664-6.856c1.114-1.944,2.741-3.427,4.886-4.433
				c1.672-0.777,3.923-1.162,6.753-1.162c2.724,0,4.763,0.242,6.118,0.721c1.352,0.488,2.476,1.232,3.366,2.247
				c0.889,1.016,1.564,2.303,2.013,3.854l-7.37,1.284c-0.302-0.907-0.815-1.603-1.538-2.083c-0.722-0.479-1.646-0.726-2.766-0.726
				c-1.667,0-2.998,0.57-3.99,1.703c-0.991,1.136-1.489,2.934-1.489,5.387c0,2.609,0.506,4.476,1.504,5.591
				c1.006,1.119,2.406,1.676,4.204,1.676c0.847,0,1.659-0.116,2.437-0.358c0.773-0.243,1.659-0.653,2.655-1.227v-2.264H80.259z"/>
			<path fill="#50B848" d="M96.17,18.3h6.395v2.865c0.613-1.249,1.249-2.108,1.905-2.57c0.657-0.476,1.469-0.705,2.433-0.705
				c1.011,0,2.112,0.307,3.313,0.933l-2.121,4.77c-0.809-0.333-1.444-0.497-1.919-0.497c-0.895,0-1.59,0.367-2.086,1.081
				c-0.707,1.02-1.055,2.925-1.055,5.715v5.838H96.17V18.3z"/>
			<path fill="#50B848" d="M131.814,28.668h-13.765c0.126,1.076,0.426,1.875,0.901,2.398c0.672,0.756,1.544,1.132,2.623,1.132
				c0.685,0,1.33-0.16,1.942-0.484c0.374-0.207,0.779-0.578,1.205-1.097l6.722,0.592c-1.033,1.754-2.281,3.016-3.741,3.785
				c-1.461,0.76-3.558,1.149-6.289,1.149c-2.37,0-4.236-0.324-5.596-0.985c-1.362-0.648-2.489-1.685-3.381-3.102
				c-0.896-1.422-1.337-3.094-1.337-5.012c0-2.722,0.89-4.938,2.684-6.619c1.792-1.689,4.265-2.536,7.42-2.536
				c2.563,0,4.586,0.376,6.064,1.136c1.482,0.752,2.614,1.854,3.387,3.284c0.777,1.439,1.162,3.301,1.162,5.608V28.668z
				 M124.863,25.45c-0.134-1.292-0.494-2.221-1.075-2.782c-0.585-0.562-1.348-0.838-2.295-0.838c-1.097,0-1.976,0.419-2.633,1.266
				c-0.417,0.527-0.681,1.313-0.797,2.355H124.863z"/>
			<path fill="#50B848" d="M154.801,28.668h-13.767c0.125,1.076,0.425,1.875,0.903,2.398c0.667,0.756,1.542,1.132,2.625,1.132
				c0.676,0,1.325-0.16,1.939-0.484c0.374-0.207,0.776-0.578,1.208-1.097l6.723,0.592c-1.035,1.754-2.281,3.016-3.747,3.785
				c-1.465,0.76-3.556,1.149-6.286,1.149c-2.372,0-4.238-0.324-5.599-0.985c-1.357-0.648-2.484-1.685-3.379-3.102
				c-0.894-1.422-1.341-3.094-1.341-5.012c0-2.722,0.897-4.938,2.688-6.619c1.791-1.689,4.266-2.536,7.422-2.536
				c2.56,0,4.582,0.376,6.063,1.136c1.48,0.752,2.607,1.854,3.388,3.284c0.771,1.439,1.16,3.301,1.16,5.608V28.668z M147.846,25.45
				c-0.135-1.292-0.49-2.221-1.074-2.782c-0.583-0.562-1.346-0.838-2.298-0.838c-1.094,0-1.97,0.419-2.626,1.266
				c-0.42,0.527-0.683,1.313-0.796,2.355H147.846z"/>
			<path fill="#50B848" d="M157.949,18.3h6.386v2.838c0.95-1.17,1.913-1.999,2.885-2.501c0.972-0.501,2.16-0.748,3.556-0.748
				c1.889,0,3.37,0.549,4.434,1.65c1.071,1.098,1.603,2.8,1.603,5.099v11.091h-6.857v-9.575c0-1.102-0.207-1.879-0.618-2.329
				c-0.419-0.458-0.998-0.683-1.745-0.683c-0.83,0-1.5,0.307-2.014,0.92c-0.514,0.613-0.774,1.71-0.774,3.305v8.36h-6.856V18.3z"/>
		</g>
		<g>
			<path fill="#00AEEF" d="M78.976,39.561v-0.45h6.104v0.45h-0.652c-0.682,0-1.209,0.28-1.575,0.829
				c-0.179,0.269-0.27,0.86-0.27,1.797v6.775c0,1.681-0.172,2.977-0.522,3.906c-0.339,0.925-1.024,1.719-2.031,2.381
				c-1.011,0.665-2.394,0.989-4.133,0.989c-1.898,0-3.333-0.311-4.318-0.951c-0.98-0.626-1.676-1.473-2.086-2.54
				c-0.272-0.734-0.411-2.108-0.411-4.118v-6.536c0-1.033-0.146-1.716-0.436-2.04c-0.29-0.328-0.761-0.492-1.417-0.492h-0.642v-0.45
				h7.442v0.45h-0.661c-0.709,0-1.214,0.215-1.517,0.661c-0.214,0.302-0.32,0.924-0.32,1.871v7.28c0,0.647,0.063,1.399,0.186,2.229
				c0.125,0.838,0.35,1.486,0.679,1.962c0.328,0.467,0.794,0.851,1.408,1.153c0.616,0.302,1.368,0.462,2.264,0.462
				c1.14,0,2.16-0.246,3.064-0.721c0.898-0.471,1.516-1.084,1.845-1.828c0.334-0.743,0.496-2.003,0.496-3.776v-6.761
				c0-1.054-0.121-1.716-0.354-1.983c-0.337-0.367-0.83-0.548-1.491-0.548H78.976z"/>
			<path fill="#00AEEF" d="M89.587,46.62c1.37-1.594,2.674-2.385,3.915-2.385c0.634,0,1.183,0.147,1.644,0.458
				c0.46,0.311,0.823,0.82,1.1,1.529c0.182,0.501,0.276,1.262,0.276,2.281v4.849c0,0.708,0.061,1.188,0.173,1.438
				c0.095,0.208,0.242,0.363,0.451,0.48c0.202,0.113,0.58,0.168,1.135,0.168v0.445H92.5v-0.445h0.244
				c0.544,0,0.927-0.083,1.15-0.237c0.211-0.16,0.365-0.393,0.449-0.7c0.035-0.121,0.051-0.51,0.051-1.148v-4.654
				c0-1.037-0.136-1.789-0.41-2.247c-0.279-0.47-0.739-0.708-1.392-0.708c-1.006,0-2.01,0.535-3.007,1.608v6.001
				c0,0.756,0.047,1.226,0.139,1.403c0.121,0.243,0.28,0.411,0.492,0.523c0.207,0.108,0.626,0.16,1.266,0.16v0.445H85.7v-0.445
				h0.257c0.588,0,0.984-0.139,1.193-0.432c0.205-0.289,0.309-0.842,0.309-1.654v-4.226c0-1.361-0.033-2.191-0.097-2.488
				c-0.065-0.303-0.165-0.502-0.294-0.605c-0.138-0.113-0.315-0.165-0.536-0.165c-0.246,0-0.532,0.066-0.868,0.186l-0.195-0.449
				l3.564-1.369h0.553V46.62z"/>
			<path fill="#00AEEF" d="M103.265,44.235v9.117c0,0.699,0.052,1.162,0.16,1.395c0.103,0.234,0.257,0.406,0.466,0.522
				c0.204,0.113,0.584,0.168,1.13,0.168v0.445h-5.641v-0.445c0.557,0,0.934-0.051,1.128-0.155c0.193-0.104,0.345-0.281,0.459-0.528
				c0.11-0.246,0.169-0.711,0.169-1.403v-4.36c0-1.244-0.039-2.047-0.115-2.415c-0.064-0.264-0.155-0.449-0.288-0.558
				c-0.127-0.1-0.304-0.152-0.527-0.152c-0.242,0-0.538,0.066-0.877,0.186l-0.183-0.449l3.546-1.369H103.265z M102.206,38.317
				c0.359,0,0.662,0.116,0.914,0.362c0.252,0.239,0.378,0.533,0.378,0.877c0,0.342-0.126,0.639-0.378,0.882
				c-0.252,0.242-0.555,0.367-0.914,0.367c-0.358,0-0.665-0.125-0.915-0.367c-0.256-0.243-0.385-0.54-0.385-0.882
				c0-0.345,0.125-0.639,0.375-0.877C101.533,38.433,101.844,38.317,102.206,38.317z"/>
			<path fill="#00AEEF" d="M105.908,44.546h5.484v0.442h-0.356c-0.331,0-0.586,0.072-0.759,0.228
				c-0.172,0.16-0.258,0.373-0.258,0.64c0,0.28,0.086,0.618,0.263,1.019l2.706,6.244l2.708-6.48
				c0.195-0.454,0.294-0.813,0.294-1.046c0-0.112-0.039-0.211-0.104-0.285c-0.095-0.121-0.211-0.207-0.36-0.254
				c-0.141-0.043-0.439-0.064-0.88-0.064v-0.442h3.785v0.442c-0.44,0.038-0.748,0.125-0.916,0.267
				c-0.297,0.254-0.57,0.683-0.808,1.279l-4.104,9.703h-0.51l-4.139-9.553c-0.185-0.454-0.366-0.79-0.538-0.984
				c-0.171-0.199-0.389-0.368-0.654-0.498c-0.144-0.073-0.429-0.15-0.853-0.215V44.546z"/>
			<path fill="#00AEEF" d="M121.527,48.81c-0.013,1.677,0.406,3.004,1.253,3.949c0.843,0.959,1.836,1.435,2.982,1.435
				c0.756,0,1.417-0.198,1.982-0.604c0.56-0.402,1.031-1.106,1.413-2.108l0.416,0.25c-0.182,1.154-0.703,2.195-1.556,3.119
				c-0.863,0.925-1.941,1.387-3.233,1.387c-1.406,0-2.608-0.522-3.604-1.582c-1.003-1.062-1.501-2.484-1.501-4.268
				c0-1.94,0.51-3.448,1.534-4.532c1.028-1.081,2.312-1.621,3.867-1.621c1.309,0,2.385,0.411,3.228,1.245
				c0.841,0.833,1.266,1.939,1.266,3.33H121.527z M121.527,48.102h5.41c-0.043-0.721-0.133-1.223-0.268-1.517
				c-0.214-0.454-0.528-0.815-0.956-1.076c-0.418-0.254-0.855-0.388-1.317-0.388c-0.704,0-1.335,0.267-1.895,0.786
				C121.941,46.439,121.618,47.16,121.527,48.102z"/>
			<path fill="#00AEEF" d="M134.615,44.235v2.554c0.976-1.702,1.976-2.554,3.002-2.554c0.471,0,0.855,0.129,1.161,0.411
				c0.305,0.28,0.46,0.601,0.46,0.963c0,0.329-0.112,0.597-0.337,0.821c-0.22,0.229-0.488,0.332-0.793,0.332
				c-0.3,0-0.632-0.142-1.004-0.44c-0.368-0.302-0.638-0.445-0.816-0.445c-0.152,0-0.315,0.083-0.494,0.251
				c-0.379,0.345-0.775,0.906-1.178,1.698v5.435c0,0.613,0.082,1.084,0.246,1.404c0.112,0.224,0.311,0.41,0.6,0.553
				c0.285,0.146,0.695,0.22,1.233,0.22v0.445h-6.104v-0.445c0.615,0,1.069-0.085,1.372-0.272c0.221-0.125,0.372-0.332,0.46-0.623
				c0.046-0.142,0.065-0.54,0.065-1.191v-4.36c0-1.338-0.028-2.134-0.084-2.389c-0.056-0.255-0.159-0.44-0.311-0.557
				c-0.152-0.112-0.335-0.178-0.562-0.178c-0.269,0-0.568,0.066-0.903,0.186l-0.125-0.449l3.569-1.369H134.615z"/>
			<path fill="#00AEEF" d="M147.485,44.235v3.867h-0.462c-0.325-1.223-0.737-2.056-1.238-2.498c-0.503-0.436-1.142-0.66-1.916-0.66
				c-0.594,0-1.071,0.155-1.434,0.458c-0.365,0.307-0.545,0.648-0.545,1.02c0,0.462,0.134,0.855,0.397,1.188
				c0.261,0.338,0.795,0.696,1.603,1.081l1.875,0.881c1.733,0.817,2.597,1.893,2.597,3.227c0,1.038-0.402,1.868-1.206,2.494
				c-0.804,0.635-1.7,0.946-2.692,0.946c-0.717,0-1.529-0.116-2.449-0.372c-0.279-0.073-0.503-0.112-0.685-0.112
				c-0.196,0-0.35,0.099-0.456,0.307h-0.467v-4.043h0.467c0.233,1.162,0.689,2.035,1.357,2.623c0.67,0.596,1.421,0.895,2.251,0.895
				c0.588,0,1.063-0.178,1.43-0.51c0.372-0.328,0.557-0.739,0.557-1.209c0-0.566-0.207-1.046-0.626-1.439
				c-0.41-0.389-1.233-0.881-2.471-1.477c-1.236-0.592-2.05-1.128-2.433-1.612c-0.385-0.471-0.574-1.058-0.574-1.775
				c0-0.938,0.328-1.715,0.98-2.333c0.662-0.631,1.512-0.942,2.557-0.942c0.457,0,1.013,0.096,1.669,0.293
				c0.431,0.125,0.719,0.19,0.864,0.19c0.134,0,0.241-0.025,0.317-0.091c0.08-0.056,0.169-0.189,0.271-0.393H147.485z"/>
			<path fill="#00AEEF" d="M154.095,44.235v9.117c0,0.699,0.059,1.162,0.165,1.395c0.104,0.234,0.263,0.406,0.462,0.522
				c0.208,0.113,0.587,0.168,1.141,0.168v0.445h-5.643v-0.445c0.558,0,0.934-0.051,1.129-0.155c0.189-0.104,0.347-0.281,0.455-0.528
				c0.11-0.246,0.169-0.711,0.169-1.403v-4.36c0-1.244-0.04-2.047-0.116-2.415c-0.059-0.264-0.152-0.449-0.284-0.558
				c-0.13-0.1-0.305-0.152-0.528-0.152c-0.241,0-0.535,0.066-0.876,0.186l-0.187-0.449l3.552-1.369H154.095z M153.045,38.317
				c0.355,0,0.656,0.116,0.907,0.362c0.253,0.239,0.38,0.533,0.38,0.877c0,0.342-0.127,0.639-0.38,0.882
				c-0.25,0.242-0.551,0.367-0.907,0.367c-0.361,0-0.666-0.125-0.925-0.367c-0.25-0.243-0.376-0.54-0.376-0.882
				c0-0.345,0.123-0.639,0.376-0.877C152.371,38.433,152.678,38.317,153.045,38.317z"/>
			<path fill="#00AEEF" d="M160.766,40.757v3.789h2.731v0.848h-2.731v7.375c0,0.734,0.103,1.228,0.319,1.49
				c0.211,0.256,0.484,0.381,0.821,0.381c0.272,0,0.541-0.078,0.803-0.25c0.256-0.164,0.459-0.402,0.597-0.731h0.509
				c-0.293,0.8-0.717,1.404-1.262,1.802c-0.544,0.397-1.102,0.6-1.676,0.6c-0.393,0-0.773-0.103-1.145-0.315
				c-0.376-0.208-0.648-0.51-0.83-0.903c-0.177-0.393-0.264-1.002-0.264-1.815v-7.634h-1.852v-0.406
				c0.469-0.182,0.946-0.489,1.438-0.926c0.488-0.436,0.92-0.95,1.309-1.555c0.191-0.315,0.467-0.899,0.812-1.75H160.766z"/>
			<path fill="#00AEEF" d="M163.868,44.546h5.461v0.442h-0.268c-0.384,0-0.67,0.082-0.86,0.241
				c-0.199,0.165-0.285,0.363-0.285,0.596c0,0.329,0.139,0.778,0.415,1.34l2.877,5.733l2.627-6.265
				c0.143-0.346,0.216-0.678,0.216-1.011c0-0.151-0.03-0.263-0.086-0.337c-0.069-0.094-0.178-0.164-0.323-0.216
				c-0.144-0.057-0.398-0.082-0.766-0.082v-0.442h3.798v0.442c-0.315,0.038-0.558,0.099-0.73,0.198
				c-0.165,0.095-0.354,0.281-0.558,0.553c-0.078,0.117-0.224,0.432-0.436,0.946l-4.782,11.298c-0.463,1.093-1.06,1.931-1.806,2.48
				c-0.744,0.561-1.457,0.847-2.148,0.847c-0.497,0-0.912-0.139-1.235-0.416c-0.32-0.281-0.484-0.604-0.484-0.967
				c0-0.341,0.117-0.627,0.351-0.83c0.233-0.22,0.557-0.319,0.959-0.319c0.281,0,0.661,0.091,1.145,0.263
				c0.337,0.122,0.553,0.173,0.635,0.173c0.255,0,0.536-0.117,0.838-0.376c0.299-0.25,0.609-0.739,0.916-1.469l0.833-1.987
				l-4.216-8.499c-0.129-0.25-0.333-0.571-0.614-0.959c-0.215-0.29-0.389-0.484-0.522-0.592c-0.199-0.13-0.515-0.241-0.951-0.345
				V44.546z"/>
		</g>
	</g>
</g>
</svg>
